<svg xmlns="http://www.w3.org/2000/svg" width="1180" height="670"
viewBox="0 0 1180 670" role="img"
aria-label="GitHub activity, stats, languages and contribution snake">
<defs>
  <clipPath id="activityFrame"><rect x="1" y="1" width="1178" height="668" rx="16"/></clipPath>
  <mask id="streakMask"><rect x="0" y="0" width="1180" height="195" fill="white"/><ellipse cx="590" cy="32" rx="13" ry="18" fill="black"/></mask>
</defs>
<rect x="1" y="1" width="1178" height="668" rx="16"
      fill="#F6FAFC" stroke="#B8DCE4" stroke-width="2"/>
<g clip-path="url(#activityFrame)">
  <!-- Single clean top edge for the streak panel. -->
  <rect x="26" y="18" width="1128" height="176" rx="12"
        fill="#FFFFFF" stroke="#B8DCE4"/>
  <line x1="402.67" y1="54" x2="402.67" y2="176" stroke="#8CCAD8"/>
  <line x1="777.33" y1="54" x2="777.33" y2="176" stroke="#8CCAD8"/>

  <!-- ACTIVE DAYS -->
  <g transform="translate(214.67 42) scale(0.78)">
    <ellipse cx="0" cy="29" rx="25" ry="4" fill="#000000" opacity="0.12"/>
    <rect x="-28" y="-18" width="56" height="48" rx="7" fill="#0891B2"/>
    <rect x="-28" y="-18" width="56" height="16" rx="7" fill="#0891B2"/>
    <rect x="-28" y="-10" width="56" height="8" fill="#0891B2"/>
    <rect x="-23" y="-1" width="46" height="26" rx="3" fill="#FFFFFF"/>
    <g fill="none" stroke="#0891B2" stroke-width="1.7">
      <path d="M-12 -6 V-20"/><path d="M0 -6 V-20"/><path d="M12 -6 V-20"/>
    </g>
    <g fill="#0891B2">
      <circle cx="-19" cy="5" r="1.7"/><circle cx="-7" cy="5" r="1.7"/><circle cx="5" cy="5" r="1.7"/><circle cx="17" cy="5" r="1.7"/>
      <circle cx="-19" cy="14" r="1.7"/><circle cx="-7" cy="14" r="1.7"/><circle cx="5" cy="14" r="1.7"/><circle cx="17" cy="14" r="1.7"/>
    </g>
    <g fill="#FFFFFF">
      <circle cx="-12" cy="-18" r="5"/><circle cx="0" cy="-18" r="5"/><circle cx="12" cy="-18" r="5"/>
    </g>
    <g fill="#0891B2">
      <circle cx="-12" cy="-18" r="2"/><circle cx="0" cy="-18" r="2"/><circle cx="12" cy="-18" r="2"/>
    </g>
  </g>
  <text x="214.67" y="104" text-anchor="middle" fill="#0891B2" font-family="Segoe UI,Ubuntu,sans-serif" font-size="34.5" font-weight="700">16</text>
  <text x="196.67" y="134" text-anchor="middle" fill="#0891B2" font-family="Segoe UI,Ubuntu,sans-serif" font-size="16.1" font-weight="700">Active Days</text>
  <text x="196.67" y="158" text-anchor="middle" fill="#64748B" font-family="Segoe UI,Ubuntu,sans-serif" font-size="13.8">last 400 days</text>
  <rect x="172" y="170" width="49" height="4" rx="2" fill="#0891B2"/>

  <!-- CURRENT STREAK -->
  <g mask="url(#streakMask)">
    <circle cx="590" cy="81" r="40" fill="none" stroke="#0891B2" stroke-width="5"/>
  </g>
  <g transform="translate(590 27.5)" stroke-opacity="0">
    <path d="M 1.5 0.67 C 1.5 0.67 2.24 3.32 2.24 5.47 C 2.24 7.53 0.89 9.2 -1.17 9.2 C -3.23 9.2 -4.79 7.53 -4.79 5.47 L -4.76 5.11 C -6.78 7.51 -8 10.62 -8 13.99 C -8 18.41 -4.42 22 0 22 C 4.42 22 8 18.41 8 13.99 C 8 8.6 5.41 3.79 1.5 0.67 Z M -0.29 19 C -2.07 19 -3.51 17.6 -3.51 15.86 C -3.51 14.24 -2.46 13.1 -0.7 12.74 C 1.07 12.38 2.9 11.53 3.92 10.16 C 4.31 11.45 4.51 12.81 4.51 14.2 C 4.51 16.85 2.36 19 -0.29 19 Z" fill="#0891B2"/>
  </g>
  <text x="590" y="88" text-anchor="middle" fill="#0F172A" font-family="Segoe UI,Ubuntu,sans-serif" font-weight="700" font-size="32.2">3</text>
  <text x="590" y="148" text-anchor="middle" fill="#0891B2" font-family="Segoe UI,Ubuntu,sans-serif" font-weight="700" font-size="16.1">Current Streak</text>
  <text x="590" y="174" text-anchor="middle" fill="#64748B" font-family="Segoe UI,Ubuntu,sans-serif" font-weight="400" font-size="13.8">recent contribution run</text>

  <!-- LONGEST STREAK -->
  <g transform="translate(965.33 42) scale(0.78)">
    <ellipse cx="0" cy="29" rx="27" ry="4" fill="#000000" opacity="0.12"/>
    <path d="M-10 -20 H10 V-3 C10 7 5 14 0 17 C-5 14 -10 7 -10 -3 Z" fill="#0E7490"/>
    <path d="M-10 -15 H-22 V-5 C-22 6 -15 13 -7 13 V7 C-12 6 -15 2 -15 -4 H-10 Z" fill="#0E7490"/>
    <path d="M10 -15 H22 V-5 C22 6 15 13 7 13 V7 C12 6 15 2 15 -4 H10 Z" fill="#0E7490"/>
    <path d="M-3 15 H3 V23 H-3 Z" fill="#0E7490"/>
    <rect x="-18" y="22" width="36" height="8" rx="3" fill="#0E7490"/>
  </g>
  <text x="965.33" y="104" text-anchor="middle" fill="#0E7490" font-family="Segoe UI,Ubuntu,sans-serif" font-size="34.5" font-weight="700">8</text>
  <text x="983.33" y="134" text-anchor="middle" fill="#0E7490" font-family="Segoe UI,Ubuntu,sans-serif" font-size="16.1" font-weight="700">Longest Streak</text>
  <text x="983.33" y="158" text-anchor="middle" fill="#64748B" font-family="Segoe UI,Ubuntu,sans-serif" font-size="13.8">all-time record</text>
  <rect x="958" y="170" width="51" height="4" rx="2" fill="#0E7490"/>

  <!-- GITHUB STATS CARD -->
  <rect x="26" y="210" width="556" height="220" rx="14"
        fill="#FFFFFF" stroke="#B8DCE4"/>
  <text x="50" y="242" fill="#0891B2" font-size="15.6" font-weight="700"
        font-family="ui-monospace,SFMono-Regular,Menlo,monospace">GITHUB STATS</text>
  <path d="M178 238 H556" stroke="#B8DCE4" stroke-dasharray="2 7"/>

  <!-- Fixed icon rails: equal x positions, equal row spacing, consistent label gap. -->
  <g fill="none" stroke="#0891B2" stroke-width="1.8" stroke-linecap="round" stroke-linejoin="round">
    <!-- Repositories -->
    <path d="M-8 -4.5 H-1.5 L0 -3 H8 V6 H-8 Z" transform="translate(48 270)"/>
    <!-- Followers -->
    <circle cx="48" cy="315" r="3.2"/>
    <path d="M42.2 325.3 C43 321.7 45 320 48 320 C50.9 320 53 321.7 53.8 325.3"/>
    <circle cx="55.9" cy="316.5" r="2.3"/>
    <path d="M54.3 320.3 C56.7 320.4 58.1 321.6 58.8 323.7"/>
    <!-- Pull Requests -->
    <circle cx="48" cy="364" r="2.15"/><circle cx="48" cy="376" r="2.15"/><circle cx="59" cy="364" r="2.15"/>
    <path d="M48 366.15 V373.85 M50.3 376 C55.9 376 59 373 59 367.8 V366.15"/>

    <!-- Stars -->
    <path d="M0 -8 L2.1 -2.6 L7.8 -2.1 L3.4 1.5 L4.8 7.4 L0 4.3 L-4.8 7.4 L-3.4 1.5 L-7.8 -2.1 L-2.1 -2.6 Z" transform="translate(318 270)"/>
    <!-- Commits -->
    <path d="M310 315 H314 M322 315 H326"/>
    <circle cx="318" cy="315" r="3.4" fill="#0891B2" stroke="none"/>
    <!-- Issues -->
    <circle cx="318" cy="364" r="7.2"/>
    <path d="M318 360.4 V365.2"/>
    <circle cx="318" cy="368.2" r=".75" fill="#0891B2" stroke="none"/>
  </g>

  <text x="76" y="275" fill="#64748B" font-size="10.8" font-family="ui-monospace,SFMono-Regular,Menlo,monospace">Repositories</text>
  <text x="76" y="296" fill="#0F172A" font-size="20.4" font-weight="700" font-family="ui-monospace,SFMono-Regular,Menlo,monospace">3</text>
  <text x="346" y="275" fill="#64748B" font-size="10.8" font-family="ui-monospace,SFMono-Regular,Menlo,monospace">Stars</text>
  <text x="346" y="296" fill="#0F172A" font-size="20.4" font-weight="700" font-family="ui-monospace,SFMono-Regular,Menlo,monospace">1</text>

  <text x="76" y="320" fill="#64748B" font-size="10.8" font-family="ui-monospace,SFMono-Regular,Menlo,monospace">Followers</text>
  <text x="76" y="341" fill="#0F172A" font-size="20.4" font-weight="700" font-family="ui-monospace,SFMono-Regular,Menlo,monospace">20</text>
  <text x="346" y="320" fill="#64748B" font-size="10.8" font-family="ui-monospace,SFMono-Regular,Menlo,monospace">Commits</text>
  <text x="346" y="341" fill="#0F172A" font-size="20.4" font-weight="700" font-family="ui-monospace,SFMono-Regular,Menlo,monospace">332</text>

  <text x="76" y="369" fill="#64748B" font-size="10.8" font-family="ui-monospace,SFMono-Regular,Menlo,monospace">Pull Requests</text>
  <text x="76" y="390" fill="#0F172A" font-size="20.4" font-weight="700" font-family="ui-monospace,SFMono-Regular,Menlo,monospace">2</text>
  <text x="346" y="369" fill="#64748B" font-size="10.8" font-family="ui-monospace,SFMono-Regular,Menlo,monospace">Issues</text>
  <text x="346" y="390" fill="#0F172A" font-size="20.4" font-weight="700" font-family="ui-monospace,SFMono-Regular,Menlo,monospace">0</text>

  <text x="50" y="414" fill="#0E7490" font-size="10.8"
        font-family="ui-monospace,SFMono-Regular,Menlo,monospace">generated by GitHub Actions</text>

  <!-- TOP LANGUAGES CARD -->
  <rect x="598" y="210" width="556" height="220" rx="14"
        fill="#FFFFFF" stroke="#B8DCE4"/>
  <text x="628" y="242" fill="#0891B2" font-size="15.6" font-weight="700"
        font-family="ui-monospace,SFMono-Regular,Menlo,monospace">TOP LANGUAGES</text>
  <path d="M726 238 H1130" stroke="#B8DCE4" stroke-dasharray="2 7"/>

  <rect x="622" y="264" width="508" height="12" rx="2" fill="#D9EEF2"/><rect x="622.0" y="264" width="459.1" height="14" fill="#00E5FF"/><circle cx="626" cy="296" r="4" fill="#00E5FF"/><text x="640" y="301" fill="#0F172A" font-size="13.2" font-family="ui-monospace,SFMono-Regular,Menlo,monospace">TypeScript</text><text x="1130" y="301" text-anchor="end" fill="#64748B" font-size="13.2" font-family="ui-monospace,SFMono-Regular,Menlo,monospace">90.4%</text><rect x="1081.1" y="264" width="39.3" height="14" fill="#19C3FF"/><circle cx="626" cy="317" r="4" fill="#19C3FF"/><text x="640" y="322" fill="#0F172A" font-size="13.2" font-family="ui-monospace,SFMono-Regular,Menlo,monospace">Python</text><text x="1130" y="322" text-anchor="end" fill="#64748B" font-size="13.2" font-family="ui-monospace,SFMono-Regular,Menlo,monospace">7.7%</text><rect x="1120.4" y="264" width="8.1" height="14" fill="#18C9A8"/><circle cx="626" cy="338" r="4" fill="#18C9A8"/><text x="640" y="343" fill="#0F172A" font-size="13.2" font-family="ui-monospace,SFMono-Regular,Menlo,monospace">CSS</text><text x="1130" y="343" text-anchor="end" fill="#64748B" font-size="13.2" font-family="ui-monospace,SFMono-Regular,Menlo,monospace">1.6%</text><rect x="1128.5" y="264" width="3.0" height="14" fill="#246BFF"/><circle cx="626" cy="359" r="4" fill="#246BFF"/><text x="640" y="364" fill="#0F172A" font-size="13.2" font-family="ui-monospace,SFMono-Regular,Menlo,monospace">JavaScript</text><text x="1130" y="364" text-anchor="end" fill="#64748B" font-size="13.2" font-family="ui-monospace,SFMono-Regular,Menlo,monospace">0.3%</text><rect x="1131.5" y="264" width="3.0" height="14" fill="#4F46E5"/><circle cx="626" cy="380" r="4" fill="#4F46E5"/><text x="640" y="385" fill="#0F172A" font-size="13.2" font-family="ui-monospace,SFMono-Regular,Menlo,monospace">Java</text><text x="1130" y="385" text-anchor="end" fill="#64748B" font-size="13.2" font-family="ui-monospace,SFMono-Regular,Menlo,monospace">0.0%</text><text x="622" y="414" fill="#0E7490" font-size="10.8" font-family="ui-monospace,SFMono-Regular,Menlo,monospace">top five repository languages · GitHub language bytes</text><g transform="translate(42 486.3) scale(1.2818 0.8854)"><desc>Generated with https://github.com/Platane/snk</desc><style>:root{--cb:#1b1f230a;--cs:#22D3C5;--ce:#343942;--c0:#071A2F;--c1:#0B3554;--c2:#12658A;--c3:#1597B8;--c4:#1FA8C2}.c{shape-rendering:geometricPrecision;fill:var(--ce);stroke-width:1px;stroke:var(--cb);animation:none 14700ms linear infinite;width:12px;height:12px}@keyframes c0{7.47%{fill:var(--c1)}7.49%,100%{fill:var(--ce)}}.c.c0{fill:var(--c1);animation-name:c0}@keyframes c1{36.72%{fill:var(--c1)}36.74%,100%{fill:var(--ce)}}.c.c1{fill:var(--c1);animation-name:c1}@keyframes c2{51.01%{fill:var(--c3)}51.03%,100%{fill:var(--ce)}}.c.c2{fill:var(--c3);animation-name:c2}@keyframes c3{43.53%{fill:var(--c1)}43.55%,100%{fill:var(--ce)}}.c.c3{fill:var(--c1);animation-name:c3}@keyframes c4{64.62%{fill:var(--c4)}64.64%,100%{fill:var(--ce)}}.c.c4{fill:var(--c4);animation-name:c4}@keyframes c5{46.25%{fill:var(--c1)}46.27%,100%{fill:var(--ce)}}.c.c5{fill:var(--c1);animation-name:c5}@keyframes c6{38.77%{fill:var(--c1)}38.79%,100%{fill:var(--ce)}}.c.c6{fill:var(--c1);animation-name:c6}@keyframes c7{53.05%{fill:var(--c4)}53.07%,100%{fill:var(--ce)}}.c.c7{fill:var(--c4);animation-name:c7}@keyframes c8{49.65%{fill:var(--c1)}49.67%,100%{fill:var(--ce)}}.c.c8{fill:var(--c1);animation-name:c8}@keyframes c9{42.17%{fill:var(--c1)}42.19%,100%{fill:var(--ce)}}.c.c9{fill:var(--c1);animation-name:c9}@keyframes ca{41.49%{fill:var(--c1)}41.51%,100%{fill:var(--ce)}}.c.ca{fill:var(--c1);animation-name:ca}@keyframes cb{40.81%{fill:var(--c1)}40.83%,100%{fill:var(--ce)}}.c.cb{fill:var(--c1);animation-name:cb}@keyframes cc{39.45%{fill:var(--c1)}39.47%,100%{fill:var(--ce)}}.c.cc{fill:var(--c1);animation-name:cc}@keyframes cd{55.09%{fill:var(--c4)}55.11%,100%{fill:var(--ce)}}.c.cd{fill:var(--c4);animation-name:cd}@keyframes ce{55.77%{fill:var(--c4)}55.79%,100%{fill:var(--ce)}}.c.ce{fill:var(--c4);animation-name:ce}@keyframes cf{60.53%{fill:var(--c4)}60.55%,100%{fill:var(--ce)}}.c.cf{fill:var(--c4);animation-name:cf}.u{transform-origin:0 0;transform:scale(0,1);animation:none linear 14700ms infinite}@keyframes u0{7.47%{transform:scale(0.000,1)}7.49%,36.72%{transform:scale(0.100,1)}36.74%,38.77%{transform:scale(0.200,1)}38.79%,39.45%{transform:scale(0.300,1)}39.47%,40.81%{transform:scale(0.400,1)}40.83%,41.49%{transform:scale(0.500,1)}41.51%,42.17%{transform:scale(0.600,1)}42.19%,43.53%{transform:scale(0.700,1)}43.55%,46.25%{transform:scale(0.800,1)}46.27%,49.65%{transform:scale(0.900,1)}49.67%,100%{transform:scale(1.000,1)}}.u.u0{fill:var(--c1);animation-name:u0;transform-origin:0.0px 0}@keyframes u1{51.01%{transform:scale(0.000,1)}51.03%,100%{transform:scale(1.000,1)}}.u.u1{fill:var(--c3);animation-name:u1;transform-origin:530.0px 0}@keyframes u2{53.05%{transform:scale(0.000,1)}53.07%,55.09%{transform:scale(0.200,1)}55.11%,55.77%{transform:scale(0.400,1)}55.79%,60.53%{transform:scale(0.600,1)}60.55%,64.62%{transform:scale(0.800,1)}64.64%,100%{transform:scale(1.000,1)}}.u.u2{fill:var(--c4);animation-name:u2;transform-origin:583.0px 0}.s{shape-rendering:geometricPrecision;fill:var(--cs);animation:none linear 14700ms infinite}@keyframes s0{0%,99.32%{transform:translate(0px,-16px)}0.68%{transform:translate(0px,0px)}3.4%,95.92%{transform:translate(64px,0px)}7.48%{transform:translate(64px,96px)}35.37%{transform:translate(720px,96px)}36.05%{transform:translate(720px,80px)}37.41%{transform:translate(752px,80px)}38.1%{transform:translate(752px,64px)}39.46%{transform:translate(784px,64px)}42.18%{transform:translate(784px,0px)}43.54%{transform:translate(752px,0px)}45.58%{transform:translate(752px,48px)}46.94%{transform:translate(784px,48px)}48.98%{transform:translate(784px,96px)}51.02%{transform:translate(736px,96px)}51.7%{transform:translate(736px,80px)}55.1%{transform:translate(816px,80px)}55.78%{transform:translate(816px,96px)}56.46%{transform:translate(832px,96px)}60.54%{transform:translate(832px,0px)}63.27%{transform:translate(768px,0px)}64.63%{transform:translate(768px,32px)}93.88%{transform:translate(80px,32px)}95.24%{transform:translate(80px,0px)}96.6%{transform:translate(64px,-16px)}}.s.s0{transform:translate(0px,-16px);animation-name:s0}@keyframes s1{0%,99.32%{transform:translate(16px,-16px)}0.68%{transform:translate(0px,-16px)}1.36%{transform:translate(0px,0px)}4.08%,96.6%{transform:translate(64px,0px)}8.16%{transform:translate(64px,96px)}36.05%{transform:translate(720px,96px)}36.73%{transform:translate(720px,80px)}38.1%{transform:translate(752px,80px)}38.78%{transform:translate(752px,64px)}40.14%{transform:translate(784px,64px)}42.86%{transform:translate(784px,0px)}44.22%{transform:translate(752px,0px)}46.26%{transform:translate(752px,48px)}47.62%{transform:translate(784px,48px)}49.66%{transform:translate(784px,96px)}51.7%{transform:translate(736px,96px)}52.38%{transform:translate(736px,80px)}55.78%{transform:translate(816px,80px)}56.46%{transform:translate(816px,96px)}57.14%{transform:translate(832px,96px)}61.22%{transform:translate(832px,0px)}63.95%{transform:translate(768px,0px)}65.31%{transform:translate(768px,32px)}94.56%{transform:translate(80px,32px)}95.92%{transform:translate(80px,0px)}97.28%{transform:translate(64px,-16px)}}.s.s1{transform:translate(16px,-16px);animation-name:s1}@keyframes s2{0%,99.32%{transform:translate(32px,-16px)}1.36%{transform:translate(0px,-16px)}2.04%{transform:translate(0px,0px)}4.76%,97.28%{transform:translate(64px,0px)}8.84%{transform:translate(64px,96px)}36.73%{transform:translate(720px,96px)}37.41%{transform:translate(720px,80px)}38.78%{transform:translate(752px,80px)}39.46%{transform:translate(752px,64px)}40.82%{transform:translate(784px,64px)}43.54%{transform:translate(784px,0px)}44.9%{transform:translate(752px,0px)}46.94%{transform:translate(752px,48px)}48.3%{transform:translate(784px,48px)}50.34%{transform:translate(784px,96px)}52.38%{transform:translate(736px,96px)}53.06%{transform:translate(736px,80px)}56.46%{transform:translate(816px,80px)}57.14%{transform:translate(816px,96px)}57.82%{transform:translate(832px,96px)}61.9%{transform:translate(832px,0px)}64.63%{transform:translate(768px,0px)}65.99%{transform:translate(768px,32px)}95.24%{transform:translate(80px,32px)}96.6%{transform:translate(80px,0px)}97.96%{transform:translate(64px,-16px)}}.s.s2{transform:translate(32px,-16px);animation-name:s2}@keyframes s3{0%,99.32%{transform:translate(48px,-16px)}2.04%{transform:translate(0px,-16px)}2.72%{transform:translate(0px,0px)}5.44%,97.96%{transform:translate(64px,0px)}9.52%{transform:translate(64px,96px)}37.41%{transform:translate(720px,96px)}38.1%{transform:translate(720px,80px)}39.46%{transform:translate(752px,80px)}40.14%{transform:translate(752px,64px)}41.5%{transform:translate(784px,64px)}44.22%{transform:translate(784px,0px)}45.58%{transform:translate(752px,0px)}47.62%{transform:translate(752px,48px)}48.98%{transform:translate(784px,48px)}51.02%{transform:translate(784px,96px)}53.06%{transform:translate(736px,96px)}53.74%{transform:translate(736px,80px)}57.14%{transform:translate(816px,80px)}57.82%{transform:translate(816px,96px)}58.5%{transform:translate(832px,96px)}62.59%{transform:translate(832px,0px)}65.31%{transform:translate(768px,0px)}66.67%{transform:translate(768px,32px)}95.92%{transform:translate(80px,32px)}97.28%{transform:translate(80px,0px)}98.64%{transform:translate(64px,-16px)}}.s.s3{transform:translate(48px,-16px);animation-name:s3}</style><rect class="c" x="2" y="2" rx="2" ry="2"/><rect class="c" x="2" y="18" rx="2" ry="2"/><rect class="c" x="2" y="34" rx="2" ry="2"/><rect class="c" x="2" y="50" rx="2" ry="2"/><rect class="c" x="2" y="66" rx="2" ry="2"/><rect class="c" x="2" y="82" rx="2" ry="2"/><rect class="c" x="2" y="98" rx="2" ry="2"/><rect class="c" x="18" y="2" rx="2" ry="2"/><rect class="c" x="18" y="18" rx="2" ry="2"/><rect class="c" x="18" y="34" rx="2" ry="2"/><rect class="c" x="18" y="50" rx="2" ry="2"/><rect class="c" x="18" y="66" rx="2" ry="2"/><rect class="c" x="18" y="82" rx="2" ry="2"/><rect class="c" x="18" y="98" rx="2" ry="2"/><rect class="c" x="34" y="2" rx="2" ry="2"/><rect class="c" x="34" y="18" rx="2" ry="2"/><rect class="c" x="34" y="34" rx="2" ry="2"/><rect class="c" x="34" y="50" rx="2" ry="2"/><rect class="c" x="34" y="66" rx="2" ry="2"/><rect class="c" x="34" y="82" rx="2" ry="2"/><rect class="c" x="34" y="98" rx="2" ry="2"/><rect class="c" x="50" y="2" rx="2" ry="2"/><rect class="c" x="50" y="18" rx="2" ry="2"/><rect class="c" x="50" y="34" rx="2" ry="2"/><rect class="c" x="50" y="50" rx="2" ry="2"/><rect class="c" x="50" y="66" rx="2" ry="2"/><rect class="c" x="50" y="82" rx="2" ry="2"/><rect class="c" x="50" y="98" rx="2" ry="2"/><rect class="c" x="66" y="2" rx="2" ry="2"/><rect class="c" x="66" y="18" rx="2" ry="2"/><rect class="c" x="66" y="34" rx="2" ry="2"/><rect class="c" x="66" y="50" rx="2" ry="2"/><rect class="c" x="66" y="66" rx="2" ry="2"/><rect class="c" x="66" y="82" rx="2" ry="2"/><rect class="c c0" x="66" y="98" rx="2" ry="2"/><rect class="c" x="82" y="2" rx="2" ry="2"/><rect class="c" x="82" y="18" rx="2" ry="2"/><rect class="c" x="82" y="34" rx="2" ry="2"/><rect class="c" x="82" y="50" rx="2" ry="2"/><rect class="c" x="82" y="66" rx="2" ry="2"/><rect class="c" x="82" y="82" rx="2" ry="2"/><rect class="c" x="82" y="98" rx="2" ry="2"/><rect class="c" x="98" y="2" rx="2" ry="2"/><rect class="c" x="98" y="18" rx="2" ry="2"/><rect class="c" x="98" y="34" rx="2" ry="2"/><rect class="c" x="98" y="50" rx="2" ry="2"/><rect class="c" x="98" y="66" rx="2" ry="2"/><rect class="c" x="98" y="82" rx="2" ry="2"/><rect class="c" x="98" y="98" rx="2" ry="2"/><rect class="c" x="114" y="2" rx="2" ry="2"/><rect class="c" x="114" y="18" rx="2" ry="2"/><rect class="c" x="114" y="34" rx="2" ry="2"/><rect class="c" x="114" y="50" rx="2" ry="2"/><rect class="c" x="114" y="66" rx="2" ry="2"/><rect class="c" x="114" y="82" rx="2" ry="2"/><rect class="c" x="114" y="98" rx="2" ry="2"/><rect class="c" x="130" y="2" rx="2" ry="2"/><rect class="c" x="130" y="18" rx="2" ry="2"/><rect class="c" x="130" y="34" rx="2" ry="2"/><rect class="c" x="130" y="50" rx="2" ry="2"/><rect class="c" x="130" y="66" rx="2" ry="2"/><rect class="c" x="130" y="82" rx="2" ry="2"/><rect class="c" x="130" y="98" rx="2" ry="2"/><rect class="c" x="146" y="2" rx="2" ry="2"/><rect class="c" x="146" y="18" rx="2" ry="2"/><rect class="c" x="146" y="34" rx="2" ry="2"/><rect class="c" x="146" y="50" rx="2" ry="2"/><rect class="c" x="146" y="66" rx="2" ry="2"/><rect class="c" x="146" y="82" rx="2" ry="2"/><rect class="c" x="146" y="98" rx="2" ry="2"/><rect class="c" x="162" y="2" rx="2" ry="2"/><rect class="c" x="162" y="18" rx="2" ry="2"/><rect class="c" x="162" y="34" rx="2" ry="2"/><rect class="c" x="162" y="50" rx="2" ry="2"/><rect class="c" x="162" y="66" rx="2" ry="2"/><rect class="c" x="162" y="82" rx="2" ry="2"/><rect class="c" x="162" y="98" rx="2" ry="2"/><rect class="c" x="178" y="2" rx="2" ry="2"/><rect class="c" x="178" y="18" rx="2" ry="2"/><rect class="c" x="178" y="34" rx="2" ry="2"/><rect class="c" x="178" y="50" rx="2" ry="2"/><rect class="c" x="178" y="66" rx="2" ry="2"/><rect class="c" x="178" y="82" rx="2" ry="2"/><rect class="c" x="178" y="98" rx="2" ry="2"/><rect class="c" x="194" y="2" rx="2" ry="2"/><rect class="c" x="194" y="18" rx="2" ry="2"/><rect class="c" x="194" y="34" rx="2" ry="2"/><rect class="c" x="194" y="50" rx="2" ry="2"/><rect class="c" x="194" y="66" rx="2" ry="2"/><rect class="c" x="194" y="82" rx="2" ry="2"/><rect class="c" x="194" y="98" rx="2" ry="2"/><rect class="c" x="210" y="2" rx="2" ry="2"/><rect class="c" x="210" y="18" rx="2" ry="2"/><rect class="c" x="210" y="34" rx="2" ry="2"/><rect class="c" x="210" y="50" rx="2" ry="2"/><rect class="c" x="210" y="66" rx="2" ry="2"/><rect class="c" x="210" y="82" rx="2" ry="2"/><rect class="c" x="210" y="98" rx="2" ry="2"/><rect class="c" x="226" y="2" rx="2" ry="2"/><rect class="c" x="226" y="18" rx="2" ry="2"/><rect class="c" x="226" y="34" rx="2" ry="2"/><rect class="c" x="226" y="50" rx="2" ry="2"/><rect class="c" x="226" y="66" rx="2" ry="2"/><rect class="c" x="226" y="82" rx="2" ry="2"/><rect class="c" x="226" y="98" rx="2" ry="2"/><rect class="c" x="242" y="2" rx="2" ry="2"/><rect class="c" x="242" y="18" rx="2" ry="2"/><rect class="c" x="242" y="34" rx="2" ry="2"/><rect class="c" x="242" y="50" rx="2" ry="2"/><rect class="c" x="242" y="66" rx="2" ry="2"/><rect class="c" x="242" y="82" rx="2" ry="2"/><rect class="c" x="242" y="98" rx="2" ry="2"/><rect class="c" x="258" y="2" rx="2" ry="2"/><rect class="c" x="258" y="18" rx="2" ry="2"/><rect class="c" x="258" y="34" rx="2" ry="2"/><rect class="c" x="258" y="50" rx="2" ry="2"/><rect class="c" x="258" y="66" rx="2" ry="2"/><rect class="c" x="258" y="82" rx="2" ry="2"/><rect class="c" x="258" y="98" rx="2" ry="2"/><rect class="c" x="274" y="2" rx="2" ry="2"/><rect class="c" x="274" y="18" rx="2" ry="2"/><rect class="c" x="274" y="34" rx="2" ry="2"/><rect class="c" x="274" y="50" rx="2" ry="2"/><rect class="c" x="274" y="66" rx="2" ry="2"/><rect class="c" x="274" y="82" rx="2" ry="2"/><rect class="c" x="274" y="98" rx="2" ry="2"/><rect class="c" x="290" y="2" rx="2" ry="2"/><rect class="c" x="290" y="18" rx="2" ry="2"/><rect class="c" x="290" y="34" rx="2" ry="2"/><rect class="c" x="290" y="50" rx="2" ry="2"/><rect class="c" x="290" y="66" rx="2" ry="2"/><rect class="c" x="290" y="82" rx="2" ry="2"/><rect class="c" x="290" y="98" rx="2" ry="2"/><rect class="c" x="306" y="2" rx="2" ry="2"/><rect class="c" x="306" y="18" rx="2" ry="2"/><rect class="c" x="306" y="34" rx="2" ry="2"/><rect class="c" x="306" y="50" rx="2" ry="2"/><rect class="c" x="306" y="66" rx="2" ry="2"/><rect class="c" x="306" y="82" rx="2" ry="2"/><rect class="c" x="306" y="98" rx="2" ry="2"/><rect class="c" x="322" y="2" rx="2" ry="2"/><rect class="c" x="322" y="18" rx="2" ry="2"/><rect class="c" x="322" y="34" rx="2" ry="2"/><rect class="c" x="322" y="50" rx="2" ry="2"/><rect class="c" x="322" y="66" rx="2" ry="2"/><rect class="c" x="322" y="82" rx="2" ry="2"/><rect class="c" x="322" y="98" rx="2" ry="2"/><rect class="c" x="338" y="2" rx="2" ry="2"/><rect class="c" x="338" y="18" rx="2" ry="2"/><rect class="c" x="338" y="34" rx="2" ry="2"/><rect class="c" x="338" y="50" rx="2" ry="2"/><rect class="c" x="338" y="66" rx="2" ry="2"/><rect class="c" x="338" y="82" rx="2" ry="2"/><rect class="c" x="338" y="98" rx="2" ry="2"/><rect class="c" x="354" y="2" rx="2" ry="2"/><rect class="c" x="354" y="18" rx="2" ry="2"/><rect class="c" x="354" y="34" rx="2" ry="2"/><rect class="c" x="354" y="50" rx="2" ry="2"/><rect class="c" x="354" y="66" rx="2" ry="2"/><rect class="c" x="354" y="82" rx="2" ry="2"/><rect class="c" x="354" y="98" rx="2" ry="2"/><rect class="c" x="370" y="2" rx="2" ry="2"/><rect class="c" x="370" y="18" rx="2" ry="2"/><rect class="c" x="370" y="34" rx="2" ry="2"/><rect class="c" x="370" y="50" rx="2" ry="2"/><rect class="c" x="370" y="66" rx="2" ry="2"/><rect class="c" x="370" y="82" rx="2" ry="2"/><rect class="c" x="370" y="98" rx="2" ry="2"/><rect class="c" x="386" y="2" rx="2" ry="2"/><rect class="c" x="386" y="18" rx="2" ry="2"/><rect class="c" x="386" y="34" rx="2" ry="2"/><rect class="c" x="386" y="50" rx="2" ry="2"/><rect class="c" x="386" y="66" rx="2" ry="2"/><rect class="c" x="386" y="82" rx="2" ry="2"/><rect class="c" x="386" y="98" rx="2" ry="2"/><rect class="c" x="402" y="2" rx="2" ry="2"/><rect class="c" x="402" y="18" rx="2" ry="2"/><rect class="c" x="402" y="34" rx="2" ry="2"/><rect class="c" x="402" y="50" rx="2" ry="2"/><rect class="c" x="402" y="66" rx="2" ry="2"/><rect class="c" x="402" y="82" rx="2" ry="2"/><rect class="c" x="402" y="98" rx="2" ry="2"/><rect class="c" x="418" y="2" rx="2" ry="2"/><rect class="c" x="418" y="18" rx="2" ry="2"/><rect class="c" x="418" y="34" rx="2" ry="2"/><rect class="c" x="418" y="50" rx="2" ry="2"/><rect class="c" x="418" y="66" rx="2" ry="2"/><rect class="c" x="418" y="82" rx="2" ry="2"/><rect class="c" x="418" y="98" rx="2" ry="2"/><rect class="c" x="434" y="2" rx="2" ry="2"/><rect class="c" x="434" y="18" rx="2" ry="2"/><rect class="c" x="434" y="34" rx="2" ry="2"/><rect class="c" x="434" y="50" rx="2" ry="2"/><rect class="c" x="434" y="66" rx="2" ry="2"/><rect class="c" x="434" y="82" rx="2" ry="2"/><rect class="c" x="434" y="98" rx="2" ry="2"/><rect class="c" x="450" y="2" rx="2" ry="2"/><rect class="c" x="450" y="18" rx="2" ry="2"/><rect class="c" x="450" y="34" rx="2" ry="2"/><rect class="c" x="450" y="50" rx="2" ry="2"/><rect class="c" x="450" y="66" rx="2" ry="2"/><rect class="c" x="450" y="82" rx="2" ry="2"/><rect class="c" x="450" y="98" rx="2" ry="2"/><rect class="c" x="466" y="2" rx="2" ry="2"/><rect class="c" x="466" y="18" rx="2" ry="2"/><rect class="c" x="466" y="34" rx="2" ry="2"/><rect class="c" x="466" y="50" rx="2" ry="2"/><rect class="c" x="466" y="66" rx="2" ry="2"/><rect class="c" x="466" y="82" rx="2" ry="2"/><rect class="c" x="466" y="98" rx="2" ry="2"/><rect class="c" x="482" y="2" rx="2" ry="2"/><rect class="c" x="482" y="18" rx="2" ry="2"/><rect class="c" x="482" y="34" rx="2" ry="2"/><rect class="c" x="482" y="50" rx="2" ry="2"/><rect class="c" x="482" y="66" rx="2" ry="2"/><rect class="c" x="482" y="82" rx="2" ry="2"/><rect class="c" x="482" y="98" rx="2" ry="2"/><rect class="c" x="498" y="2" rx="2" ry="2"/><rect class="c" x="498" y="18" rx="2" ry="2"/><rect class="c" x="498" y="34" rx="2" ry="2"/><rect class="c" x="498" y="50" rx="2" ry="2"/><rect class="c" x="498" y="66" rx="2" ry="2"/><rect class="c" x="498" y="82" rx="2" ry="2"/><rect class="c" x="498" y="98" rx="2" ry="2"/><rect class="c" x="514" y="2" rx="2" ry="2"/><rect class="c" x="514" y="18" rx="2" ry="2"/><rect class="c" x="514" y="34" rx="2" ry="2"/><rect class="c" x="514" y="50" rx="2" ry="2"/><rect class="c" x="514" y="66" rx="2" ry="2"/><rect class="c" x="514" y="82" rx="2" ry="2"/><rect class="c" x="514" y="98" rx="2" ry="2"/><rect class="c" x="530" y="2" rx="2" ry="2"/><rect class="c" x="530" y="18" rx="2" ry="2"/><rect class="c" x="530" y="34" rx="2" ry="2"/><rect class="c" x="530" y="50" rx="2" ry="2"/><rect class="c" x="530" y="66" rx="2" ry="2"/><rect class="c" x="530" y="82" rx="2" ry="2"/><rect class="c" x="530" y="98" rx="2" ry="2"/><rect class="c" x="546" y="2" rx="2" ry="2"/><rect class="c" x="546" y="18" rx="2" ry="2"/><rect class="c" x="546" y="34" rx="2" ry="2"/><rect class="c" x="546" y="50" rx="2" ry="2"/><rect class="c" x="546" y="66" rx="2" ry="2"/><rect class="c" x="546" y="82" rx="2" ry="2"/><rect class="c" x="546" y="98" rx="2" ry="2"/><rect class="c" x="562" y="2" rx="2" ry="2"/><rect class="c" x="562" y="18" rx="2" ry="2"/><rect class="c" x="562" y="34" rx="2" ry="2"/><rect class="c" x="562" y="50" rx="2" ry="2"/><rect class="c" x="562" y="66" rx="2" ry="2"/><rect class="c" x="562" y="82" rx="2" ry="2"/><rect class="c" x="562" y="98" rx="2" ry="2"/><rect class="c" x="578" y="2" rx="2" ry="2"/><rect class="c" x="578" y="18" rx="2" ry="2"/><rect class="c" x="578" y="34" rx="2" ry="2"/><rect class="c" x="578" y="50" rx="2" ry="2"/><rect class="c" x="578" y="66" rx="2" ry="2"/><rect class="c" x="578" y="82" rx="2" ry="2"/><rect class="c" x="578" y="98" rx="2" ry="2"/><rect class="c" x="594" y="2" rx="2" ry="2"/><rect class="c" x="594" y="18" rx="2" ry="2"/><rect class="c" x="594" y="34" rx="2" ry="2"/><rect class="c" x="594" y="50" rx="2" ry="2"/><rect class="c" x="594" y="66" rx="2" ry="2"/><rect class="c" x="594" y="82" rx="2" ry="2"/><rect class="c" x="594" y="98" rx="2" ry="2"/><rect class="c" x="610" y="2" rx="2" ry="2"/><rect class="c" x="610" y="18" rx="2" ry="2"/><rect class="c" x="610" y="34" rx="2" ry="2"/><rect class="c" x="610" y="50" rx="2" ry="2"/><rect class="c" x="610" y="66" rx="2" ry="2"/><rect class="c" x="610" y="82" rx="2" ry="2"/><rect class="c" x="610" y="98" rx="2" ry="2"/><rect class="c" x="626" y="2" rx="2" ry="2"/><rect class="c" x="626" y="18" rx="2" ry="2"/><rect class="c" x="626" y="34" rx="2" ry="2"/><rect class="c" x="626" y="50" rx="2" ry="2"/><rect class="c" x="626" y="66" rx="2" ry="2"/><rect class="c" x="626" y="82" rx="2" ry="2"/><rect class="c" x="626" y="98" rx="2" ry="2"/><rect class="c" x="642" y="2" rx="2" ry="2"/><rect class="c" x="642" y="18" rx="2" ry="2"/><rect class="c" x="642" y="34" rx="2" ry="2"/><rect class="c" x="642" y="50" rx="2" ry="2"/><rect class="c" x="642" y="66" rx="2" ry="2"/><rect class="c" x="642" y="82" rx="2" ry="2"/><rect class="c" x="642" y="98" rx="2" ry="2"/><rect class="c" x="658" y="2" rx="2" ry="2"/><rect class="c" x="658" y="18" rx="2" ry="2"/><rect class="c" x="658" y="34" rx="2" ry="2"/><rect class="c" x="658" y="50" rx="2" ry="2"/><rect class="c" x="658" y="66" rx="2" ry="2"/><rect class="c" x="658" y="82" rx="2" ry="2"/><rect class="c" x="658" y="98" rx="2" ry="2"/><rect class="c" x="674" y="2" rx="2" ry="2"/><rect class="c" x="674" y="18" rx="2" ry="2"/><rect class="c" x="674" y="34" rx="2" ry="2"/><rect class="c" x="674" y="50" rx="2" ry="2"/><rect class="c" x="674" y="66" rx="2" ry="2"/><rect class="c" x="674" y="82" rx="2" ry="2"/><rect class="c" x="674" y="98" rx="2" ry="2"/><rect class="c" x="690" y="2" rx="2" ry="2"/><rect class="c" x="690" y="18" rx="2" ry="2"/><rect class="c" x="690" y="34" rx="2" ry="2"/><rect class="c" x="690" y="50" rx="2" ry="2"/><rect class="c" x="690" y="66" rx="2" ry="2"/><rect class="c" x="690" y="82" rx="2" ry="2"/><rect class="c" x="690" y="98" rx="2" ry="2"/><rect class="c" x="706" y="2" rx="2" ry="2"/><rect class="c" x="706" y="18" rx="2" ry="2"/><rect class="c" x="706" y="34" rx="2" ry="2"/><rect class="c" x="706" y="50" rx="2" ry="2"/><rect class="c" x="706" y="66" rx="2" ry="2"/><rect class="c" x="706" y="82" rx="2" ry="2"/><rect class="c" x="706" y="98" rx="2" ry="2"/><rect class="c" x="722" y="2" rx="2" ry="2"/><rect class="c" x="722" y="18" rx="2" ry="2"/><rect class="c" x="722" y="34" rx="2" ry="2"/><rect class="c" x="722" y="50" rx="2" ry="2"/><rect class="c" x="722" y="66" rx="2" ry="2"/><rect class="c" x="722" y="82" rx="2" ry="2"/><rect class="c" x="722" y="98" rx="2" ry="2"/><rect class="c" x="738" y="2" rx="2" ry="2"/><rect class="c" x="738" y="18" rx="2" ry="2"/><rect class="c" x="738" y="34" rx="2" ry="2"/><rect class="c" x="738" y="50" rx="2" ry="2"/><rect class="c" x="738" y="66" rx="2" ry="2"/><rect class="c c1" x="738" y="82" rx="2" ry="2"/><rect class="c c2" x="738" y="98" rx="2" ry="2"/><rect class="c c3" x="754" y="2" rx="2" ry="2"/><rect class="c" x="754" y="18" rx="2" ry="2"/><rect class="c" x="754" y="34" rx="2" ry="2"/><rect class="c" x="754" y="50" rx="2" ry="2"/><rect class="c" x="754" y="66" rx="2" ry="2"/><rect class="c" x="754" y="82" rx="2" ry="2"/><rect class="c" x="754" y="98" rx="2" ry="2"/><rect class="c" x="770" y="2" rx="2" ry="2"/><rect class="c" x="770" y="18" rx="2" ry="2"/><rect class="c c4" x="770" y="34" rx="2" ry="2"/><rect class="c c5" x="770" y="50" rx="2" ry="2"/><rect class="c c6" x="770" y="66" rx="2" ry="2"/><rect class="c c7" x="770" y="82" rx="2" ry="2"/><rect class="c c8" x="770" y="98" rx="2" ry="2"/><rect class="c c9" x="786" y="2" rx="2" ry="2"/><rect class="c ca" x="786" y="18" rx="2" ry="2"/><rect class="c cb" x="786" y="34" rx="2" ry="2"/><rect class="c" x="786" y="50" rx="2" ry="2"/><rect class="c cc" x="786" y="66" rx="2" ry="2"/><rect class="c" x="786" y="82" rx="2" ry="2"/><rect class="c" x="786" y="98" rx="2" ry="2"/><rect class="c" x="802" y="2" rx="2" ry="2"/><rect class="c" x="802" y="18" rx="2" ry="2"/><rect class="c" x="802" y="34" rx="2" ry="2"/><rect class="c" x="802" y="50" rx="2" ry="2"/><rect class="c" x="802" y="66" rx="2" ry="2"/><rect class="c" x="802" y="82" rx="2" ry="2"/><rect class="c" x="802" y="98" rx="2" ry="2"/><rect class="c" x="818" y="2" rx="2" ry="2"/><rect class="c" x="818" y="18" rx="2" ry="2"/><rect class="c" x="818" y="34" rx="2" ry="2"/><rect class="c" x="818" y="50" rx="2" ry="2"/><rect class="c" x="818" y="66" rx="2" ry="2"/><rect class="c cd" x="818" y="82" rx="2" ry="2"/><rect class="c ce" x="818" y="98" rx="2" ry="2"/><rect class="c cf" x="834" y="2" rx="2" ry="2"/><rect class="u u0" height="12" width="530.6" x="0.0" y="144"/><rect class="u u1" height="12" width="53.6" x="530.0" y="144"/><rect class="u u2" height="12" width="265.6" x="583.0" y="144"/><rect class="s s0" x="0.8" y="0.8" width="14.4" height="14.4" rx="4.5" ry="4.5"/><rect class="s s1" x="1.8" y="1.8" width="12.3" height="12.3" rx="4.1" ry="4.1"/><rect class="s s2" x="2.6" y="2.6" width="10.8" height="10.8" rx="3.6" ry="3.6"/><rect class="s s3" x="3.0" y="3.0" width="9.9" height="9.9" rx="3.3" ry="3.3"/></g></g></svg>