<svg xmlns="http://www.w3.org/2000/svg" width="1180" height="670"
viewBox="0 0 1180 670" role="img"
aria-label="GitHub activity, stats, languages and contribution snake">
<defs>
  <clipPath id="activityFrame"><rect x="1" y="1" width="1178" height="668" rx="16"/></clipPath>
</defs>
<rect x="1" y="1" width="1178" height="668" rx="16"
      fill="#F6FAFC" stroke="#B8DCE4" stroke-width="2"/>
<g clip-path="url(#activityFrame)">
  <rect x="16" y="16" width="1148" height="178" rx="12"
        fill="#FFFFFF" stroke="#B8DCE4"/>
  <line x1="393.33" y1="44" x2="393.33" y2="170" stroke="#8CCAD8"/>
  <line x1="786.67" y1="44" x2="786.67" y2="170" stroke="#8CCAD8"/>

  <!-- ACTIVE DAYS -->
  <g fill="#0891B2">
    <rect x="193" y="42" width="24" height="22" rx="4"/>
    <rect x="193" y="40" width="24" height="7" rx="3"/>
    <rect x="197" y="36" width="3" height="7" rx="1"/>
    <rect x="210" y="36" width="3" height="7" rx="1"/>
    <rect x="197" y="50" width="3" height="3" rx="1"/>
    <rect x="203" y="50" width="3" height="3" rx="1"/>
    <rect x="209" y="50" width="3" height="3" rx="1"/>
    <rect x="197" y="56" width="3" height="3" rx="1"/>
    <rect x="203" y="56" width="3" height="3" rx="1"/>
    <rect x="209" y="56" width="3" height="3" rx="1"/>
  </g>
  <text x="205" y="98" text-anchor="middle" fill="#0891B2"
        font-family="Segoe UI,Ubuntu,sans-serif"
        font-size="30" font-weight="700">18</text>
  <text x="205" y="126" text-anchor="middle" fill="#0891B2"
        font-family="Segoe UI,Ubuntu,sans-serif"
        font-size="14" font-weight="700">Active Days</text>
  <text x="205" y="150" text-anchor="middle" fill="#64748B"
        font-family="Segoe UI,Ubuntu,sans-serif"
        font-size="12">last 400 days</text>
  <rect x="180" y="158" width="50" height="4" rx="2" fill="#0891B2"/>

  <!-- CURRENT STREAK -->
  <circle cx="590" cy="91" r="40" fill="none" stroke="#0891B2" stroke-width="5"/>
  <g fill="#0891B2">
    <path d="M590 37 C594 44 591 48 597 53 C603 58 600 66 594 70 C600 67 606 63 606 57 C606 52 604 48 600 44 C601 51 596 55 594 51 C592 47 595 42 590 37 Z"/>
    <path d="M586 56 C582 60 581 64 583 68 C585 72 589 74 593 74 C589 71 588 68 590 65 C592 62 590 59 586 56 Z"/>
  </g>
  <text x="590" y="99" text-anchor="middle" fill="#0F172A"
        font-family="Segoe UI,Ubuntu,sans-serif"
        font-size="28" font-weight="700">1</text>
  <text x="590" y="140" text-anchor="middle" fill="#0891B2"
        font-family="Segoe UI,Ubuntu,sans-serif"
        font-size="14" font-weight="700">Current Streak</text>
  <text x="590" y="166" text-anchor="middle" fill="#64748B"
        font-family="Segoe UI,Ubuntu,sans-serif"
        font-size="12">active contribution days</text>

  <!-- LONGEST STREAK -->
  <g fill="#0E7490">
    <path d="M983 39 L987 49 L998 50 L990 57 L992 68 L983 63 L974 68 L976 57 L968 50 L979 49 Z"/>
    <rect x="979" y="63" width="8" height="13" rx="1"/>
    <rect x="970" y="76" width="26" height="6" rx="2"/>
    <path d="M976 48 H963 C963 58 967 63 975 64 V58 C970 57 968 54 968 51 H976 Z"/>
    <path d="M990 48 H1003 C1003 58 999 63 991 64 V58 C996 57 998 54 998 51 H990 Z"/>
  </g>
  <text x="983" y="98" text-anchor="middle" fill="#0E7490"
        font-family="Segoe UI,Ubuntu,sans-serif"
        font-size="30" font-weight="700">8</text>
  <text x="983" y="126" text-anchor="middle" fill="#0E7490"
        font-family="Segoe UI,Ubuntu,sans-serif"
        font-size="14" font-weight="700">Longest Streak</text>
  <text x="983" y="150" text-anchor="middle" fill="#64748B"
        font-family="Segoe UI,Ubuntu,sans-serif"
        font-size="12">all-time record</text>
  <rect x="958" y="158" width="51" height="4" rx="2" fill="#0E7490"/>

  <!-- GITHUB STATS CARD -->
  <rect x="26" y="210" width="550" height="220" rx="14"
        fill="#FFFFFF" stroke="#B8DCE4"/>
  <text x="50" y="242" fill="#0891B2" font-size="13" font-weight="700"
        font-family="ui-monospace,SFMono-Regular,Menlo,monospace">GITHUB STATS</text>
  <path d="M178 238 H550" stroke="#B8DCE4" stroke-dasharray="2 7"/>

  <g font-family="Segoe UI Emoji, Segoe UI, sans-serif" font-size="10">
    <path d="M50 274 H59 L63 278 H75 V289 H50 Z" fill="#0891B2"/>
    <text x="68" y="282" fill="#64748B" font-size="10">Repositories</text>
    <text x="68" y="304" fill="#0F172A" font-size="18" font-weight="700">2</text>

    <path d="M330 274 L332.5 280 L339 280.5 L334 284.5 L335.5 291 L330 287.5 L324.5 291 L326 284.5 L321 280.5 L327.5 280 Z" fill="#0891B2"/>
    <text x="336" y="282" fill="#64748B" font-size="10">Stars</text>
    <text x="336" y="304" fill="#0F172A" font-size="18" font-weight="700">0</text>

    <g fill="#0891B2"><circle cx="57" cy="322" r="4"/><circle cx="68" cy="324" r="3"/><path d="M50 336 C50 330 53 327 57 327 C61 327 64 330 64 336 Z"/><path d="M63 336 C63 332 66 330 69 330 C72 330 75 332 75 336 Z"/></g>
    <text x="68" y="329" fill="#64748B" font-size="10">Followers</text>
    <text x="68" y="351" fill="#0F172A" font-size="18" font-weight="700">19</text>

    <g fill="#0891B2"><rect x="50" y="319" width="23" height="15" rx="2"/><rect x="56" y="336" width="11" height="2" rx="1"/></g>
    <text x="336" y="329" fill="#64748B" font-size="10">Commits</text>
    <text x="336" y="351" fill="#0F172A" font-size="18" font-weight="700">160</text>

    <g fill="none" stroke="#0891B2" stroke-width="2"><circle cx="56" cy="372" r="3.5"/><circle cx="70" cy="372" r="3.5"/><circle cx="63" cy="384" r="3.5"/><path d="M56 376 V384 M70 376 V379 C70 382 68 384 63 384"/></g>
    <text x="68" y="376" fill="#64748B" font-size="10">Pull Requests</text>
    <text x="68" y="398" fill="#0F172A" font-size="18" font-weight="700">1</text>

    <g fill="#0891B2"><circle cx="330" cy="377" r="8"/><rect x="329" y="372" width="2" height="6" rx="1" fill="#FFFFFF"/><circle cx="330" cy="381" r="1.2" fill="#FFFFFF"/></g>
    <text x="336" y="376" fill="#64748B" font-size="10">Issues</text>
    <text x="336" y="398" fill="#0F172A" font-size="18" font-weight="700">0</text>
  </g>
  <text x="50" y="414" fill="#0E7490" font-size="9"
        font-family="ui-monospace,SFMono-Regular,Menlo,monospace">generated by GitHub Actions</text>

  <!-- TOP LANGUAGES CARD -->
  <rect x="604" y="210" width="550" height="220" rx="14"
        fill="#FFFFFF" stroke="#B8DCE4"/>
  <text x="628" y="242" fill="#0891B2" font-size="13" font-weight="700"
        font-family="ui-monospace,SFMono-Regular,Menlo,monospace">TOP LANGUAGES</text>
  <path d="M752 238 H1128" stroke="#B8DCE4" stroke-dasharray="2 7"/>

  <rect x="628" y="264" width="500" height="12" rx="2" fill="#D9EEF2"/><rect x="628.0" y="264" width="500.0" height="12" fill="#22D3EE"/><circle cx="632" cy="297" r="3.6" fill="#22D3EE"/><text x="646" y="301" fill="#0F172A" font-size="11" font-family="ui-monospace,SFMono-Regular,Menlo,monospace">Python</text><text x="1128" y="301" text-anchor="end" fill="#64748B" font-size="11" font-family="ui-monospace,SFMono-Regular,Menlo,monospace">100.0%</text><text x="628" y="414" fill="#0E7490" font-size="9" font-family="ui-monospace,SFMono-Regular,Menlo,monospace">calculated from GitHub language bytes</text><g transform="translate(46.5 486.3) scale(1.2818 0.8854)"><desc>Generated with https://github.com/Platane/snk</desc><style>:root{--cb:#1b1f230a;--cs:#22D3C5;--ce:#343942;--c0:#071A2F;--c1:#0B3554;--c2:#12658A;--c3:#1597B8;--c4:#1FA8C2}.c{shape-rendering:geometricPrecision;fill:var(--ce);stroke-width:1px;stroke:var(--cb);animation:none 14900ms linear infinite;width:12px;height:12px}@keyframes c0{0.66%{fill:var(--c1)}0.68%,100%{fill:var(--ce)}}.c.c0{fill:var(--c1);animation-name:c0}@keyframes c1{4.69%{fill:var(--c1)}4.71%,100%{fill:var(--ce)}}.c.c1{fill:var(--c1);animation-name:c1}@keyframes c2{8.04%{fill:var(--c1)}8.06%,100%{fill:var(--ce)}}.c.c2{fill:var(--c1);animation-name:c2}@keyframes c3{10.73%{fill:var(--c1)}10.75%,100%{fill:var(--ce)}}.c.c3{fill:var(--c1);animation-name:c3}@keyframes c4{32.88%{fill:var(--c1)}32.9%,100%{fill:var(--ce)}}.c.c4{fill:var(--c1);animation-name:c4}@keyframes c5{40.93%{fill:var(--c1)}40.95%,100%{fill:var(--ce)}}.c.c5{fill:var(--c1);animation-name:c5}@keyframes c6{55.02%{fill:var(--c2)}55.04%,100%{fill:var(--ce)}}.c.c6{fill:var(--c2);animation-name:c6}@keyframes c7{47.64%{fill:var(--c1)}47.66%,100%{fill:var(--ce)}}.c.c7{fill:var(--c1);animation-name:c7}@keyframes c8{59.05%{fill:var(--c3)}59.07%,100%{fill:var(--ce)}}.c.c8{fill:var(--c3);animation-name:c8}@keyframes c9{50.33%{fill:var(--c1)}50.35%,100%{fill:var(--ce)}}.c.c9{fill:var(--c1);animation-name:c9}@keyframes ca{42.94%{fill:var(--c1)}42.96%,100%{fill:var(--ce)}}.c.ca{fill:var(--c1);animation-name:ca}@keyframes cb{62.41%{fill:var(--c4)}62.43%,100%{fill:var(--ce)}}.c.cb{fill:var(--c4);animation-name:cb}@keyframes cc{53.68%{fill:var(--c1)}53.7%,100%{fill:var(--ce)}}.c.cc{fill:var(--c1);animation-name:cc}@keyframes cd{46.3%{fill:var(--c1)}46.32%,100%{fill:var(--ce)}}.c.cd{fill:var(--c1);animation-name:cd}@keyframes ce{45.63%{fill:var(--c1)}45.65%,100%{fill:var(--ce)}}.c.ce{fill:var(--c1);animation-name:ce}@keyframes cf{44.96%{fill:var(--c1)}44.98%,100%{fill:var(--ce)}}.c.cf{fill:var(--c1);animation-name:cf}@keyframes cg{43.61%{fill:var(--c1)}43.63%,100%{fill:var(--ce)}}.c.cg{fill:var(--c1);animation-name:cg}.u{transform-origin:0 0;transform:scale(0,1);animation:none linear 14900ms infinite}@keyframes u0{0.66%{transform:scale(0.000,1)}0.68%,4.69%{transform:scale(0.071,1)}4.71%,8.04%{transform:scale(0.143,1)}8.06%,10.73%{transform:scale(0.214,1)}10.75%,32.88%{transform:scale(0.286,1)}32.9%,40.93%{transform:scale(0.357,1)}40.95%,42.94%{transform:scale(0.429,1)}42.96%,43.61%{transform:scale(0.500,1)}43.63%,44.96%{transform:scale(0.571,1)}44.98%,45.63%{transform:scale(0.643,1)}45.65%,46.3%{transform:scale(0.714,1)}46.32%,47.64%{transform:scale(0.786,1)}47.66%,50.33%{transform:scale(0.857,1)}50.35%,53.68%{transform:scale(0.929,1)}53.7%,100%{transform:scale(1.000,1)}}.u.u0{fill:var(--c1);animation-name:u0;transform-origin:0.0px 0}@keyframes u1{55.02%{transform:scale(0.000,1)}55.04%,100%{transform:scale(1.000,1)}}.u.u1{fill:var(--c2);animation-name:u1;transform-origin:698.4px 0}@keyframes u2{59.05%{transform:scale(0.000,1)}59.07%,100%{transform:scale(1.000,1)}}.u.u2{fill:var(--c3);animation-name:u2;transform-origin:748.2px 0}@keyframes u3{62.41%{transform:scale(0.000,1)}62.43%,100%{transform:scale(1.000,1)}}.u.u3{fill:var(--c4);animation-name:u3;transform-origin:798.1px 0}.s{shape-rendering:geometricPrecision;fill:var(--cs);animation:none linear 14900ms infinite}@keyframes s0{0%,99.33%{transform:translate(0px,-16px)}4.7%{transform:translate(0px,96px)}8.72%{transform:translate(96px,96px)}10.74%{transform:translate(96px,48px)}30.87%{transform:translate(576px,48px)}32.89%{transform:translate(576px,96px)}39.6%{transform:translate(736px,96px)}40.27%{transform:translate(736px,80px)}41.61%,56.38%{transform:translate(768px,80px)}42.28%,57.05%{transform:translate(768px,64px)}43.62%{transform:translate(800px,64px)}46.31%{transform:translate(800px,0px)}47.65%{transform:translate(768px,0px)}49.66%{transform:translate(768px,48px)}51.01%,60.4%{transform:translate(800px,48px)}53.02%{transform:translate(800px,96px)}55.03%{transform:translate(752px,96px)}55.7%{transform:translate(752px,80px)}57.72%{transform:translate(784px,64px)}59.06%{transform:translate(784px,32px)}59.73%{transform:translate(800px,32px)}61.07%{transform:translate(784px,48px)}62.42%{transform:translate(784px,80px)}88.59%{transform:translate(160px,80px)}89.26%{transform:translate(160px,64px)}90.6%{transform:translate(128px,64px)}91.28%{transform:translate(128px,48px)}91.95%{transform:translate(112px,48px)}92.62%{transform:translate(112px,32px)}93.29%{transform:translate(96px,32px)}95.3%{transform:translate(96px,-16px)}}.s.s0{transform:translate(0px,-16px);animation-name:s0}@keyframes s1{0%,99.33%{transform:translate(16px,-16px)}0.67%{transform:translate(0px,-16px)}5.37%{transform:translate(0px,96px)}9.4%{transform:translate(96px,96px)}11.41%{transform:translate(96px,48px)}31.54%{transform:translate(576px,48px)}33.56%{transform:translate(576px,96px)}40.27%{transform:translate(736px,96px)}40.94%{transform:translate(736px,80px)}42.28%,57.05%{transform:translate(768px,80px)}42.95%,57.72%{transform:translate(768px,64px)}44.3%{transform:translate(800px,64px)}46.98%{transform:translate(800px,0px)}48.32%{transform:translate(768px,0px)}50.34%{transform:translate(768px,48px)}51.68%,61.07%{transform:translate(800px,48px)}53.69%{transform:translate(800px,96px)}55.7%{transform:translate(752px,96px)}56.38%{transform:translate(752px,80px)}58.39%{transform:translate(784px,64px)}59.73%{transform:translate(784px,32px)}60.4%{transform:translate(800px,32px)}61.74%{transform:translate(784px,48px)}63.09%{transform:translate(784px,80px)}89.26%{transform:translate(160px,80px)}89.93%{transform:translate(160px,64px)}91.28%{transform:translate(128px,64px)}91.95%{transform:translate(128px,48px)}92.62%{transform:translate(112px,48px)}93.29%{transform:translate(112px,32px)}93.96%{transform:translate(96px,32px)}95.97%{transform:translate(96px,-16px)}}.s.s1{transform:translate(16px,-16px);animation-name:s1}@keyframes s2{0%,99.33%{transform:translate(32px,-16px)}1.34%{transform:translate(0px,-16px)}6.04%{transform:translate(0px,96px)}10.07%{transform:translate(96px,96px)}12.08%{transform:translate(96px,48px)}32.21%{transform:translate(576px,48px)}34.23%{transform:translate(576px,96px)}40.94%{transform:translate(736px,96px)}41.61%{transform:translate(736px,80px)}42.95%,57.72%{transform:translate(768px,80px)}43.62%,58.39%{transform:translate(768px,64px)}44.97%{transform:translate(800px,64px)}47.65%{transform:translate(800px,0px)}48.99%{transform:translate(768px,0px)}51.01%{transform:translate(768px,48px)}52.35%,61.74%{transform:translate(800px,48px)}54.36%{transform:translate(800px,96px)}56.38%{transform:translate(752px,96px)}57.05%{transform:translate(752px,80px)}59.06%{transform:translate(784px,64px)}60.4%{transform:translate(784px,32px)}61.07%{transform:translate(800px,32px)}62.42%{transform:translate(784px,48px)}63.76%{transform:translate(784px,80px)}89.93%{transform:translate(160px,80px)}90.6%{transform:translate(160px,64px)}91.95%{transform:translate(128px,64px)}92.62%{transform:translate(128px,48px)}93.29%{transform:translate(112px,48px)}93.96%{transform:translate(112px,32px)}94.63%{transform:translate(96px,32px)}96.64%{transform:translate(96px,-16px)}}.s.s2{transform:translate(32px,-16px);animation-name:s2}@keyframes s3{0%,99.33%{transform:translate(48px,-16px)}2.01%{transform:translate(0px,-16px)}6.71%{transform:translate(0px,96px)}10.74%{transform:translate(96px,96px)}12.75%{transform:translate(96px,48px)}32.89%{transform:translate(576px,48px)}34.9%{transform:translate(576px,96px)}41.61%{transform:translate(736px,96px)}42.28%{transform:translate(736px,80px)}43.62%,58.39%{transform:translate(768px,80px)}44.3%,59.06%{transform:translate(768px,64px)}45.64%{transform:translate(800px,64px)}48.32%{transform:translate(800px,0px)}49.66%{transform:translate(768px,0px)}51.68%{transform:translate(768px,48px)}53.02%,62.42%{transform:translate(800px,48px)}55.03%{transform:translate(800px,96px)}57.05%{transform:translate(752px,96px)}57.72%{transform:translate(752px,80px)}59.73%{transform:translate(784px,64px)}61.07%{transform:translate(784px,32px)}61.74%{transform:translate(800px,32px)}63.09%{transform:translate(784px,48px)}64.43%{transform:translate(784px,80px)}90.6%{transform:translate(160px,80px)}91.28%{transform:translate(160px,64px)}92.62%{transform:translate(128px,64px)}93.29%{transform:translate(128px,48px)}93.96%{transform:translate(112px,48px)}94.63%{transform:translate(112px,32px)}95.3%{transform:translate(96px,32px)}97.32%{transform:translate(96px,-16px)}}.s.s3{transform:translate(48px,-16px);animation-name:s3}</style><rect class="c c0" x="2" y="2" rx="2" ry="2"/><rect class="c" x="2" y="18" rx="2" ry="2"/><rect class="c" x="2" y="34" rx="2" ry="2"/><rect class="c" x="2" y="50" rx="2" ry="2"/><rect class="c" x="2" y="66" rx="2" ry="2"/><rect class="c" x="2" y="82" rx="2" ry="2"/><rect class="c c1" x="2" y="98" rx="2" ry="2"/><rect class="c" x="18" y="2" rx="2" ry="2"/><rect class="c" x="18" y="18" rx="2" ry="2"/><rect class="c" x="18" y="34" rx="2" ry="2"/><rect class="c" x="18" y="50" rx="2" ry="2"/><rect class="c" x="18" y="66" rx="2" ry="2"/><rect class="c" x="18" y="82" rx="2" ry="2"/><rect class="c" x="18" y="98" rx="2" ry="2"/><rect class="c" x="34" y="2" rx="2" ry="2"/><rect class="c" x="34" y="18" rx="2" ry="2"/><rect class="c" x="34" y="34" rx="2" ry="2"/><rect class="c" x="34" y="50" rx="2" ry="2"/><rect class="c" x="34" y="66" rx="2" ry="2"/><rect class="c" x="34" y="82" rx="2" ry="2"/><rect class="c" x="34" y="98" rx="2" ry="2"/><rect class="c" x="50" y="2" rx="2" ry="2"/><rect class="c" x="50" y="18" rx="2" ry="2"/><rect class="c" x="50" y="34" rx="2" ry="2"/><rect class="c" x="50" y="50" rx="2" ry="2"/><rect class="c" x="50" y="66" rx="2" ry="2"/><rect class="c" x="50" y="82" rx="2" ry="2"/><rect class="c" x="50" y="98" rx="2" ry="2"/><rect class="c" x="66" y="2" rx="2" ry="2"/><rect class="c" x="66" y="18" rx="2" ry="2"/><rect class="c" x="66" y="34" rx="2" ry="2"/><rect class="c" x="66" y="50" rx="2" ry="2"/><rect class="c" x="66" y="66" rx="2" ry="2"/><rect class="c" x="66" y="82" rx="2" ry="2"/><rect class="c" x="66" y="98" rx="2" ry="2"/><rect class="c" x="82" y="2" rx="2" ry="2"/><rect class="c" x="82" y="18" rx="2" ry="2"/><rect class="c" x="82" y="34" rx="2" ry="2"/><rect class="c" x="82" y="50" rx="2" ry="2"/><rect class="c" x="82" y="66" rx="2" ry="2"/><rect class="c" x="82" y="82" rx="2" ry="2"/><rect class="c c2" x="82" y="98" rx="2" ry="2"/><rect class="c" x="98" y="2" rx="2" ry="2"/><rect class="c" x="98" y="18" rx="2" ry="2"/><rect class="c" x="98" y="34" rx="2" ry="2"/><rect class="c c3" x="98" y="50" rx="2" ry="2"/><rect class="c" x="98" y="66" rx="2" ry="2"/><rect class="c" x="98" y="82" rx="2" ry="2"/><rect class="c" x="98" y="98" rx="2" ry="2"/><rect class="c" x="114" y="2" rx="2" ry="2"/><rect class="c" x="114" y="18" rx="2" ry="2"/><rect class="c" x="114" y="34" rx="2" ry="2"/><rect class="c" x="114" y="50" rx="2" ry="2"/><rect class="c" x="114" y="66" rx="2" ry="2"/><rect class="c" x="114" y="82" rx="2" ry="2"/><rect class="c" x="114" y="98" rx="2" ry="2"/><rect class="c" x="130" y="2" rx="2" ry="2"/><rect class="c" x="130" y="18" rx="2" ry="2"/><rect class="c" x="130" y="34" rx="2" ry="2"/><rect class="c" x="130" y="50" rx="2" ry="2"/><rect class="c" x="130" y="66" rx="2" ry="2"/><rect class="c" x="130" y="82" rx="2" ry="2"/><rect class="c" x="130" y="98" rx="2" ry="2"/><rect class="c" x="146" y="2" rx="2" ry="2"/><rect class="c" x="146" y="18" rx="2" ry="2"/><rect class="c" x="146" y="34" rx="2" ry="2"/><rect class="c" x="146" y="50" rx="2" ry="2"/><rect class="c" x="146" y="66" rx="2" ry="2"/><rect class="c" x="146" y="82" rx="2" ry="2"/><rect class="c" x="146" y="98" rx="2" ry="2"/><rect class="c" x="162" y="2" rx="2" ry="2"/><rect class="c" x="162" y="18" rx="2" ry="2"/><rect class="c" x="162" y="34" rx="2" ry="2"/><rect class="c" x="162" y="50" rx="2" ry="2"/><rect class="c" x="162" y="66" rx="2" ry="2"/><rect class="c" x="162" y="82" rx="2" ry="2"/><rect class="c" x="162" y="98" rx="2" ry="2"/><rect class="c" x="178" y="2" rx="2" ry="2"/><rect class="c" x="178" y="18" rx="2" ry="2"/><rect class="c" x="178" y="34" rx="2" ry="2"/><rect class="c" x="178" y="50" rx="2" ry="2"/><rect class="c" x="178" y="66" rx="2" ry="2"/><rect class="c" x="178" y="82" rx="2" ry="2"/><rect class="c" x="178" y="98" rx="2" ry="2"/><rect class="c" x="194" y="2" rx="2" ry="2"/><rect class="c" x="194" y="18" rx="2" ry="2"/><rect class="c" x="194" y="34" rx="2" ry="2"/><rect class="c" x="194" y="50" rx="2" ry="2"/><rect class="c" x="194" y="66" rx="2" ry="2"/><rect class="c" x="194" y="82" rx="2" ry="2"/><rect class="c" x="194" y="98" rx="2" ry="2"/><rect class="c" x="210" y="2" rx="2" ry="2"/><rect class="c" x="210" y="18" rx="2" ry="2"/><rect class="c" x="210" y="34" rx="2" ry="2"/><rect class="c" x="210" y="50" rx="2" ry="2"/><rect class="c" x="210" y="66" rx="2" ry="2"/><rect class="c" x="210" y="82" rx="2" ry="2"/><rect class="c" x="210" y="98" rx="2" ry="2"/><rect class="c" x="226" y="2" rx="2" ry="2"/><rect class="c" x="226" y="18" rx="2" ry="2"/><rect class="c" x="226" y="34" rx="2" ry="2"/><rect class="c" x="226" y="50" rx="2" ry="2"/><rect class="c" x="226" y="66" rx="2" ry="2"/><rect class="c" x="226" y="82" rx="2" ry="2"/><rect class="c" x="226" y="98" rx="2" ry="2"/><rect class="c" x="242" y="2" rx="2" ry="2"/><rect class="c" x="242" y="18" rx="2" ry="2"/><rect class="c" x="242" y="34" rx="2" ry="2"/><rect class="c" x="242" y="50" rx="2" ry="2"/><rect class="c" x="242" y="66" rx="2" ry="2"/><rect class="c" x="242" y="82" rx="2" ry="2"/><rect class="c" x="242" y="98" rx="2" ry="2"/><rect class="c" x="258" y="2" rx="2" ry="2"/><rect class="c" x="258" y="18" rx="2" ry="2"/><rect class="c" x="258" y="34" rx="2" ry="2"/><rect class="c" x="258" y="50" rx="2" ry="2"/><rect class="c" x="258" y="66" rx="2" ry="2"/><rect class="c" x="258" y="82" rx="2" ry="2"/><rect class="c" x="258" y="98" rx="2" ry="2"/><rect class="c" x="274" y="2" rx="2" ry="2"/><rect class="c" x="274" y="18" rx="2" ry="2"/><rect class="c" x="274" y="34" rx="2" ry="2"/><rect class="c" x="274" y="50" rx="2" ry="2"/><rect class="c" x="274" y="66" rx="2" ry="2"/><rect class="c" x="274" y="82" rx="2" ry="2"/><rect class="c" x="274" y="98" rx="2" ry="2"/><rect class="c" x="290" y="2" rx="2" ry="2"/><rect class="c" x="290" y="18" rx="2" ry="2"/><rect class="c" x="290" y="34" rx="2" ry="2"/><rect class="c" x="290" y="50" rx="2" ry="2"/><rect class="c" x="290" y="66" rx="2" ry="2"/><rect class="c" x="290" y="82" rx="2" ry="2"/><rect class="c" x="290" y="98" rx="2" ry="2"/><rect class="c" x="306" y="2" rx="2" ry="2"/><rect class="c" x="306" y="18" rx="2" ry="2"/><rect class="c" x="306" y="34" rx="2" ry="2"/><rect class="c" x="306" y="50" rx="2" ry="2"/><rect class="c" x="306" y="66" rx="2" ry="2"/><rect class="c" x="306" y="82" rx="2" ry="2"/><rect class="c" x="306" y="98" rx="2" ry="2"/><rect class="c" x="322" y="2" rx="2" ry="2"/><rect class="c" x="322" y="18" rx="2" ry="2"/><rect class="c" x="322" y="34" rx="2" ry="2"/><rect class="c" x="322" y="50" rx="2" ry="2"/><rect class="c" x="322" y="66" rx="2" ry="2"/><rect class="c" x="322" y="82" rx="2" ry="2"/><rect class="c" x="322" y="98" rx="2" ry="2"/><rect class="c" x="338" y="2" rx="2" ry="2"/><rect class="c" x="338" y="18" rx="2" ry="2"/><rect class="c" x="338" y="34" rx="2" ry="2"/><rect class="c" x="338" y="50" rx="2" ry="2"/><rect class="c" x="338" y="66" rx="2" ry="2"/><rect class="c" x="338" y="82" rx="2" ry="2"/><rect class="c" x="338" y="98" rx="2" ry="2"/><rect class="c" x="354" y="2" rx="2" ry="2"/><rect class="c" x="354" y="18" rx="2" ry="2"/><rect class="c" x="354" y="34" rx="2" ry="2"/><rect class="c" x="354" y="50" rx="2" ry="2"/><rect class="c" x="354" y="66" rx="2" ry="2"/><rect class="c" x="354" y="82" rx="2" ry="2"/><rect class="c" x="354" y="98" rx="2" ry="2"/><rect class="c" x="370" y="2" rx="2" ry="2"/><rect class="c" x="370" y="18" rx="2" ry="2"/><rect class="c" x="370" y="34" rx="2" ry="2"/><rect class="c" x="370" y="50" rx="2" ry="2"/><rect class="c" x="370" y="66" rx="2" ry="2"/><rect class="c" x="370" y="82" rx="2" ry="2"/><rect class="c" x="370" y="98" rx="2" ry="2"/><rect class="c" x="386" y="2" rx="2" ry="2"/><rect class="c" x="386" y="18" rx="2" ry="2"/><rect class="c" x="386" y="34" rx="2" ry="2"/><rect class="c" x="386" y="50" rx="2" ry="2"/><rect class="c" x="386" y="66" rx="2" ry="2"/><rect class="c" x="386" y="82" rx="2" ry="2"/><rect class="c" x="386" y="98" rx="2" ry="2"/><rect class="c" x="402" y="2" rx="2" ry="2"/><rect class="c" x="402" y="18" rx="2" ry="2"/><rect class="c" x="402" y="34" rx="2" ry="2"/><rect class="c" x="402" y="50" rx="2" ry="2"/><rect class="c" x="402" y="66" rx="2" ry="2"/><rect class="c" x="402" y="82" rx="2" ry="2"/><rect class="c" x="402" y="98" rx="2" ry="2"/><rect class="c" x="418" y="2" rx="2" ry="2"/><rect class="c" x="418" y="18" rx="2" ry="2"/><rect class="c" x="418" y="34" rx="2" ry="2"/><rect class="c" x="418" y="50" rx="2" ry="2"/><rect class="c" x="418" y="66" rx="2" ry="2"/><rect class="c" x="418" y="82" rx="2" ry="2"/><rect class="c" x="418" y="98" rx="2" ry="2"/><rect class="c" x="434" y="2" rx="2" ry="2"/><rect class="c" x="434" y="18" rx="2" ry="2"/><rect class="c" x="434" y="34" rx="2" ry="2"/><rect class="c" x="434" y="50" rx="2" ry="2"/><rect class="c" x="434" y="66" rx="2" ry="2"/><rect class="c" x="434" y="82" rx="2" ry="2"/><rect class="c" x="434" y="98" rx="2" ry="2"/><rect class="c" x="450" y="2" rx="2" ry="2"/><rect class="c" x="450" y="18" rx="2" ry="2"/><rect class="c" x="450" y="34" rx="2" ry="2"/><rect class="c" x="450" y="50" rx="2" ry="2"/><rect class="c" x="450" y="66" rx="2" ry="2"/><rect class="c" x="450" y="82" rx="2" ry="2"/><rect class="c" x="450" y="98" rx="2" ry="2"/><rect class="c" x="466" y="2" rx="2" ry="2"/><rect class="c" x="466" y="18" rx="2" ry="2"/><rect class="c" x="466" y="34" rx="2" ry="2"/><rect class="c" x="466" y="50" rx="2" ry="2"/><rect class="c" x="466" y="66" rx="2" ry="2"/><rect class="c" x="466" y="82" rx="2" ry="2"/><rect class="c" x="466" y="98" rx="2" ry="2"/><rect class="c" x="482" y="2" rx="2" ry="2"/><rect class="c" x="482" y="18" rx="2" ry="2"/><rect class="c" x="482" y="34" rx="2" ry="2"/><rect class="c" x="482" y="50" rx="2" ry="2"/><rect class="c" x="482" y="66" rx="2" ry="2"/><rect class="c" x="482" y="82" rx="2" ry="2"/><rect class="c" x="482" y="98" rx="2" ry="2"/><rect class="c" x="498" y="2" rx="2" ry="2"/><rect class="c" x="498" y="18" rx="2" ry="2"/><rect class="c" x="498" y="34" rx="2" ry="2"/><rect class="c" x="498" y="50" rx="2" ry="2"/><rect class="c" x="498" y="66" rx="2" ry="2"/><rect class="c" x="498" y="82" rx="2" ry="2"/><rect class="c" x="498" y="98" rx="2" ry="2"/><rect class="c" x="514" y="2" rx="2" ry="2"/><rect class="c" x="514" y="18" rx="2" ry="2"/><rect class="c" x="514" y="34" rx="2" ry="2"/><rect class="c" x="514" y="50" rx="2" ry="2"/><rect class="c" x="514" y="66" rx="2" ry="2"/><rect class="c" x="514" y="82" rx="2" ry="2"/><rect class="c" x="514" y="98" rx="2" ry="2"/><rect class="c" x="530" y="2" rx="2" ry="2"/><rect class="c" x="530" y="18" rx="2" ry="2"/><rect class="c" x="530" y="34" rx="2" ry="2"/><rect class="c" x="530" y="50" rx="2" ry="2"/><rect class="c" x="530" y="66" rx="2" ry="2"/><rect class="c" x="530" y="82" rx="2" ry="2"/><rect class="c" x="530" y="98" rx="2" ry="2"/><rect class="c" x="546" y="2" rx="2" ry="2"/><rect class="c" x="546" y="18" rx="2" ry="2"/><rect class="c" x="546" y="34" rx="2" ry="2"/><rect class="c" x="546" y="50" rx="2" ry="2"/><rect class="c" x="546" y="66" rx="2" ry="2"/><rect class="c" x="546" y="82" rx="2" ry="2"/><rect class="c" x="546" y="98" rx="2" ry="2"/><rect class="c" x="562" y="2" rx="2" ry="2"/><rect class="c" x="562" y="18" rx="2" ry="2"/><rect class="c" x="562" y="34" rx="2" ry="2"/><rect class="c" x="562" y="50" rx="2" ry="2"/><rect class="c" x="562" y="66" rx="2" ry="2"/><rect class="c" x="562" y="82" rx="2" ry="2"/><rect class="c" x="562" y="98" rx="2" ry="2"/><rect class="c" x="578" y="2" rx="2" ry="2"/><rect class="c" x="578" y="18" rx="2" ry="2"/><rect class="c" x="578" y="34" rx="2" ry="2"/><rect class="c" x="578" y="50" rx="2" ry="2"/><rect class="c" x="578" y="66" rx="2" ry="2"/><rect class="c" x="578" y="82" rx="2" ry="2"/><rect class="c c4" x="578" y="98" rx="2" ry="2"/><rect class="c" x="594" y="2" rx="2" ry="2"/><rect class="c" x="594" y="18" rx="2" ry="2"/><rect class="c" x="594" y="34" rx="2" ry="2"/><rect class="c" x="594" y="50" rx="2" ry="2"/><rect class="c" x="594" y="66" rx="2" ry="2"/><rect class="c" x="594" y="82" rx="2" ry="2"/><rect class="c" x="594" y="98" rx="2" ry="2"/><rect class="c" x="610" y="2" rx="2" ry="2"/><rect class="c" x="610" y="18" rx="2" ry="2"/><rect class="c" x="610" y="34" rx="2" ry="2"/><rect class="c" x="610" y="50" rx="2" ry="2"/><rect class="c" x="610" y="66" rx="2" ry="2"/><rect class="c" x="610" y="82" rx="2" ry="2"/><rect class="c" x="610" y="98" rx="2" ry="2"/><rect class="c" x="626" y="2" rx="2" ry="2"/><rect class="c" x="626" y="18" rx="2" ry="2"/><rect class="c" x="626" y="34" rx="2" ry="2"/><rect class="c" x="626" y="50" rx="2" ry="2"/><rect class="c" x="626" y="66" rx="2" ry="2"/><rect class="c" x="626" y="82" rx="2" ry="2"/><rect class="c" x="626" y="98" rx="2" ry="2"/><rect class="c" x="642" y="2" rx="2" ry="2"/><rect class="c" x="642" y="18" rx="2" ry="2"/><rect class="c" x="642" y="34" rx="2" ry="2"/><rect class="c" x="642" y="50" rx="2" ry="2"/><rect class="c" x="642" y="66" rx="2" ry="2"/><rect class="c" x="642" y="82" rx="2" ry="2"/><rect class="c" x="642" y="98" rx="2" ry="2"/><rect class="c" x="658" y="2" rx="2" ry="2"/><rect class="c" x="658" y="18" rx="2" ry="2"/><rect class="c" x="658" y="34" rx="2" ry="2"/><rect class="c" x="658" y="50" rx="2" ry="2"/><rect class="c" x="658" y="66" rx="2" ry="2"/><rect class="c" x="658" y="82" rx="2" ry="2"/><rect class="c" x="658" y="98" rx="2" ry="2"/><rect class="c" x="674" y="2" rx="2" ry="2"/><rect class="c" x="674" y="18" rx="2" ry="2"/><rect class="c" x="674" y="34" rx="2" ry="2"/><rect class="c" x="674" y="50" rx="2" ry="2"/><rect class="c" x="674" y="66" rx="2" ry="2"/><rect class="c" x="674" y="82" rx="2" ry="2"/><rect class="c" x="674" y="98" rx="2" ry="2"/><rect class="c" x="690" y="2" rx="2" ry="2"/><rect class="c" x="690" y="18" rx="2" ry="2"/><rect class="c" x="690" y="34" rx="2" ry="2"/><rect class="c" x="690" y="50" rx="2" ry="2"/><rect class="c" x="690" y="66" rx="2" ry="2"/><rect class="c" x="690" y="82" rx="2" ry="2"/><rect class="c" x="690" y="98" rx="2" ry="2"/><rect class="c" x="706" y="2" rx="2" ry="2"/><rect class="c" x="706" y="18" rx="2" ry="2"/><rect class="c" x="706" y="34" rx="2" ry="2"/><rect class="c" x="706" y="50" rx="2" ry="2"/><rect class="c" x="706" y="66" rx="2" ry="2"/><rect class="c" x="706" y="82" rx="2" ry="2"/><rect class="c" x="706" y="98" rx="2" ry="2"/><rect class="c" x="722" y="2" rx="2" ry="2"/><rect class="c" x="722" y="18" rx="2" ry="2"/><rect class="c" x="722" y="34" rx="2" ry="2"/><rect class="c" x="722" y="50" rx="2" ry="2"/><rect class="c" x="722" y="66" rx="2" ry="2"/><rect class="c" x="722" y="82" rx="2" ry="2"/><rect class="c" x="722" y="98" rx="2" ry="2"/><rect class="c" x="738" y="2" rx="2" ry="2"/><rect class="c" x="738" y="18" rx="2" ry="2"/><rect class="c" x="738" y="34" rx="2" ry="2"/><rect class="c" x="738" y="50" rx="2" ry="2"/><rect class="c" x="738" y="66" rx="2" ry="2"/><rect class="c" x="738" y="82" rx="2" ry="2"/><rect class="c" x="738" y="98" rx="2" ry="2"/><rect class="c" x="754" y="2" rx="2" ry="2"/><rect class="c" x="754" y="18" rx="2" ry="2"/><rect class="c" x="754" y="34" rx="2" ry="2"/><rect class="c" x="754" y="50" rx="2" ry="2"/><rect class="c" x="754" y="66" rx="2" ry="2"/><rect class="c c5" x="754" y="82" rx="2" ry="2"/><rect class="c c6" x="754" y="98" rx="2" ry="2"/><rect class="c c7" x="770" y="2" rx="2" ry="2"/><rect class="c" x="770" y="18" rx="2" ry="2"/><rect class="c" x="770" y="34" rx="2" ry="2"/><rect class="c" x="770" y="50" rx="2" ry="2"/><rect class="c" x="770" y="66" rx="2" ry="2"/><rect class="c" x="770" y="82" rx="2" ry="2"/><rect class="c" x="770" y="98" rx="2" ry="2"/><rect class="c" x="786" y="2" rx="2" ry="2"/><rect class="c" x="786" y="18" rx="2" ry="2"/><rect class="c c8" x="786" y="34" rx="2" ry="2"/><rect class="c c9" x="786" y="50" rx="2" ry="2"/><rect class="c ca" x="786" y="66" rx="2" ry="2"/><rect class="c cb" x="786" y="82" rx="2" ry="2"/><rect class="c cc" x="786" y="98" rx="2" ry="2"/><rect class="c cd" x="802" y="2" rx="2" ry="2"/><rect class="c ce" x="802" y="18" rx="2" ry="2"/><rect class="c cf" x="802" y="34" rx="2" ry="2"/><rect class="c" x="802" y="50" rx="2" ry="2"/><rect class="c cg" x="802" y="66" rx="2" ry="2"/><rect class="c" x="802" y="82" rx="2" ry="2"/><rect class="c" x="802" y="98" rx="2" ry="2"/><rect class="c" x="818" y="2" rx="2" ry="2"/><rect class="c" x="818" y="18" rx="2" ry="2"/><rect class="c" x="818" y="34" rx="2" ry="2"/><rect class="c" x="818" y="50" rx="2" ry="2"/><rect class="c" x="818" y="66" rx="2" ry="2"/><rect class="c" x="818" y="82" rx="2" ry="2"/><rect class="c" x="818" y="98" rx="2" ry="2"/><rect class="c" x="834" y="2" rx="2" ry="2"/><rect class="c" x="834" y="18" rx="2" ry="2"/><rect class="c" x="834" y="34" rx="2" ry="2"/><rect class="c" x="834" y="50" rx="2" ry="2"/><rect class="c" x="834" y="66" rx="2" ry="2"/><rect class="c" x="834" y="82" rx="2" ry="2"/><rect class="u u0" height="12" width="699.0" x="0.0" y="144"/><rect class="u u1" height="12" width="50.5" x="698.4" y="144"/><rect class="u u2" height="12" width="50.5" x="748.2" y="144"/><rect class="u u3" height="12" width="50.5" x="798.1" y="144"/><rect class="s s0" x="0.8" y="0.8" width="14.4" height="14.4" rx="4.5" ry="4.5"/><rect class="s s1" x="1.8" y="1.8" width="12.3" height="12.3" rx="4.1" ry="4.1"/><rect class="s s2" x="2.6" y="2.6" width="10.8" height="10.8" rx="3.6" ry="3.6"/><rect class="s s3" x="3.0" y="3.0" width="9.9" height="9.9" rx="3.3" ry="3.3"/></g></g></svg>